<?xml version="1.0" encoding="iso-8859-1"?>
<!-- Generator: Adobe Illustrator 19.0.0, SVG Export Plug-In . SVG Version: 6.00 Build 0)  -->
<svg version="1.1" id="Capa_1" xmlns="http://www.w3.org/2000/svg" xmlns:xlink="http://www.w3.org/1999/xlink" x="0px" y="0px"
	 viewBox="0 0 468.358 468.358" style="enable-background:new 0 0 468.358 468.358;" xml:space="preserve">
<path style="fill:#F6C358;" d="M368.298,467.213l-46.662-11.325c-8.717-2.115-14.068-10.897-11.952-19.613l61.194-252.137
	l49.772-34.424l28.455,53.41L387.911,455.26C385.796,463.977,377.015,469.328,368.298,467.213z"/>
<path style="fill:#FCD462;" d="M423.506,202.315l-21.415,23.867l-8.092-31.029L438.383,12.28
	c1.978-8.148,10.186-13.15,18.334-11.173l0,0c8.148,1.978,13.15,10.186,11.173,18.334L423.506,202.315z"/>
<path style="fill:#27A2DB;" d="M443.824,118.598l-29.507-7.161l24.107-99.328c1.954-8.053,10.067-12.997,18.121-11.043l0.344,0.083
	c8.053,1.955,12.997,10.067,11.043,18.121L443.824,118.598z"/>
<g>
	<polygon style="fill:#FCD462;" points="59.047,422.247 40.139,467.559 21.231,422.247 21.231,17.47 59.047,17.47 	"/>
	<polygon style="fill:#FCD462;" points="162.409,422.247 143.501,467.559 124.593,422.247 124.593,17.47 162.409,17.47 	"/>
	<polygon style="fill:#FCD462;" points="266.011,422.247 247.104,467.559 228.196,422.247 228.196,17.47 266.011,17.47 	"/>
</g>
<g>
	<rect x="65.78" y="0.033" style="fill:#F6C358;" width="52.524" height="22.69"/>
	<rect x="51.906" y="5.39" style="fill:#F6C358;" width="79.835" height="11.976"/>
	<rect x="168.504" y="0.033" style="fill:#F6C358;" width="52.524" height="22.69"/>
	<rect x="154.63" y="5.39" style="fill:#F6C358;" width="79.835" height="11.976"/>
</g>
<circle style="fill:#E56353;" cx="267.957" cy="220.099" r="41.266"/>
<g>
	<rect x="267.27" y="178.858" style="fill:#64798A;" width="1.355" height="82.532"/>
	<polyline style="fill:#64798A;" points="262.712,261.032 262.712,258.658 264.065,258.658 264.065,261.186 	"/>
	<path style="fill:#64798A;" d="M264.065,186.679v5.137h-1.353v-5.137H264.065z M264.065,196.958v5.143h-1.353v-5.143H264.065z
		 M264.065,207.243v5.143h-1.353v-5.143H264.065z M264.065,217.523v5.143h-1.353v-5.143H264.065z M264.065,227.808v5.143h-1.353
		v-5.143H264.065z M264.065,238.093v5.137h-1.353v-5.137H264.065z M264.065,248.373v5.143h-1.353v-5.143H264.065z"/>
	<polyline style="fill:#64798A;" points="264.065,179.008 264.065,181.536 262.712,181.536 262.712,179.162 	"/>
	<polyline style="fill:#64798A;" points="271.845,261.186 271.845,258.658 273.198,258.658 273.198,261.032 	"/>
	<path style="fill:#64798A;" d="M273.198,186.679v5.137h-1.353v-5.137H273.198z M273.198,196.958v5.143h-1.353v-5.143H273.198z
		 M273.198,207.243v5.143h-1.353v-5.143H273.198z M273.198,217.523v5.143h-1.353v-5.143H273.198z M273.198,227.808v5.143h-1.353
		v-5.143H273.198z M273.198,238.093v5.137h-1.353v-5.137H273.198z M273.198,248.373v5.143h-1.353v-5.143H273.198z"/>
	<polyline style="fill:#64798A;" points="273.198,179.162 273.198,181.536 271.845,181.536 271.845,179.008 	"/>
</g>
<rect y="420.566" style="fill:#F6C358;" width="290.341" height="47.76"/>
<g>
</g>
<g>
</g>
<g>
</g>
<g>
</g>
<g>
</g>
<g>
</g>
<g>
</g>
<g>
</g>
<g>
</g>
<g>
</g>
<g>
</g>
<g>
</g>
<g>
</g>
<g>
</g>
<g>
</g>
</svg>
